HIERARCHY
ROOT root
{
	OFFSET 0.000000 0.000000 0.000000
	CHANNELS 6 Xposition Yposition Zposition Zrotation Yrotation Xrotation
	JOINT lhip
	{
		OFFSET 0.058581 -0.082280 -0.017664
		CHANNELS 3 Zrotation Yrotation Xrotation
		JOINT lknee
		{
			OFFSET 0.043451 -0.386469 0.008037
			CHANNELS 3 Zrotation Yrotation Xrotation
			JOINT lankle
			{
				OFFSET -0.014790 -0.426874 -0.037428
				CHANNELS 3 Zrotation Yrotation Xrotation
				JOINT ltoe
				{
					OFFSET 0.041054 -0.060286 0.122042
					CHANNELS 3 Zrotation Yrotation Xrotation
					End Site
					{
						OFFSET 0.000000 0.000000 0.000000
					}
				}
			}
		}
	}
	JOINT rhip
	{
		OFFSET -0.060310 -0.090513 -0.013543
		CHANNELS 3 Zrotation Yrotation Xrotation
		JOINT rknee
		{
			OFFSET -0.043257 -0.383688 -0.004843
			CHANNELS 3 Zrotation Yrotation Xrotation
			JOINT rankle
			{
				OFFSET 0.019056 -0.420046 -0.034562
				CHANNELS 3 Zrotation Yrotation Xrotation
				JOINT rtoe
				{
					OFFSET -0.034840 -0.062106 0.130323
					CHANNELS 3 Zrotation Yrotation Xrotation
					End Site
					{
						OFFSET 0.000000 0.000000 0.000000
					}
				}
			}
		}
	}
	JOINT lowerback
	{
		OFFSET 0.004439 0.124404 -0.038385
		CHANNELS 3 Zrotation Yrotation Xrotation
		JOINT upperback
		{
			OFFSET 0.004488 0.137956 0.026820
			CHANNELS 3 Zrotation Yrotation Xrotation
			JOINT chest
			{
				OFFSET -0.002265 0.056032 0.002855
				CHANNELS 3 Zrotation Yrotation Xrotation
				JOINT lowerneck
				{
					OFFSET -0.013390 0.211636 -0.033468
					CHANNELS 3 Zrotation Yrotation Xrotation
					JOINT upperneck
					{
						OFFSET 0.010113 0.088937 0.050410
						CHANNELS 3 Zrotation Yrotation Xrotation
						End Site
						{
							OFFSET 0.000000 0.000000 0.000000
						}
					}
				}
				JOINT lclavicle
				{
					OFFSET 0.071702 0.114000 -0.018898
					CHANNELS 3 Zrotation Yrotation Xrotation
					JOINT lshoulder
					{
						OFFSET 0.122921 0.045205 -0.019046
						CHANNELS 3 Zrotation Yrotation Xrotation
						JOINT lelbow
						{
							OFFSET 0.255332 -0.015649 -0.022946
							CHANNELS 3 Zrotation Yrotation Xrotation
							JOINT lwrist
							{
								OFFSET 0.265709 0.012698 -0.007375
								CHANNELS 3 Zrotation Yrotation Xrotation
								End Site
								{
									OFFSET 0.000000 0.000000 0.000000
								}
							}
						}
					}
				}
				JOINT rclavicle
				{
					OFFSET -0.082954 0.112472 -0.023707
					CHANNELS 3 Zrotation Yrotation Xrotation
					JOINT rshoulder
					{
						OFFSET -0.113228 0.046853 -0.008472
						CHANNELS 3 Zrotation Yrotation Xrotation
						JOINT relbow
						{
							OFFSET -0.260127 -0.014369 -0.031269
							CHANNELS 3 Zrotation Yrotation Xrotation
							JOINT rwrist
							{
								OFFSET -0.269108 0.006794 -0.006027
								CHANNELS 3 Zrotation Yrotation Xrotation
								End Site
								{
									OFFSET 0.000000 0.000000 0.000000
								}
							}
						}
					}
				}
			}
		}
	}
}
MOTION
Frames: 14
Frame Time: 0.033333
-1.210586 0.918803 0.984687 80.689367 -1.119109 89.342569 -9.131856 -6.834936 0.455702 2.871154 -10.924050 4.016389 7.384388 20.080588 -17.225667 0.000000 -0.000000 0.000000 -2.506306 -1.262515 -12.091717 -3.613981 1.041562 13.675499 3.900559 -14.794642 -16.911893 0.000000 -0.000000 0.000000 -1.985044 1.438408 -0.493768 2.108678 -2.329727 1.406725 0.155591 2.237338 -1.530837 -10.025629 -8.503244 11.787800 10.878879 5.170321 -3.515007 -4.171238 8.373166 -9.023758 -4.032390 -10.599910 16.120248 -154.605968 -57.215545 151.720194 17.683374 -32.308264 -38.058464 -2.425350 -7.217464 -7.826449 1.216629 4.151109 6.619638 152.040249 51.625517 149.795319 -5.245449 28.008791 -19.985691 
-1.209665 0.921115 0.984109 81.011737 -1.094831 88.959179 -9.335895 -6.953955 0.690491 2.678721 -11.000230 4.443764 7.981502 19.880416 -17.219494 0.000000 -0.000000 0.000000 -2.960564 -0.979325 -13.326112 -3.303503 0.332024 17.235250 3.658655 -14.351917 -16.751488 0.000000 -0.000000 0.000000 -2.047431 1.079004 0.025096 2.339534 -2.115329 1.339677 -0.165281 2.316179 -1.572292 -8.885619 -8.278633 11.147426 10.726801 4.515494 -2.811787 -3.907719 10.769156 -8.362388 -7.830419 -10.954327 15.743142 -161.159776 -59.860087 157.737973 17.793729 -30.758229 -42.366985 -1.382222 -8.990226 -7.837423 7.775768 4.346157 6.476398 159.049263 55.140762 155.157546 -5.735845 26.590458 -26.331523 
-1.208421 0.922882 0.983129 81.475868 -0.899790 88.349211 -9.425002 -7.362275 0.879800 2.353042 -10.856745 5.535728 8.643266 19.878913 -17.434088 0.000000 -0.000000 0.000000 -3.346623 -0.562170 -14.454773 -2.934882 -0.629188 21.020760 3.131368 -14.025053 -16.235737 0.000000 -0.000000 0.000000 -2.030458 0.807952 1.168806 2.807851 -1.941011 0.565295 -0.303048 2.163441 -1.267449 -8.281956 -8.502865 10.030646 10.429008 4.196614 -1.805063 -5.167469 12.740705 -7.384635 -13.330393 -11.228394 14.832756 -172.445553 -62.559018 166.289782 19.897611 -27.849879 -48.712516 1.760905 -10.758430 -8.172952 15.135896 5.343942 5.219861 169.351947 58.112179 163.132539 -7.499640 23.632706 -31.033877 
-1.207110 0.924010 0.981906 81.990260 -0.427107 87.498869 -9.071444 -8.088840 0.989810 1.603198 -10.473999 7.333400 9.285944 19.627706 -18.088439 0.000000 -0.000000 0.000000 -3.649369 0.395422 -16.165059 -2.719187 -2.559944 26.274007 1.933973 -13.596465 -15.525214 0.000000 -0.000000 0.000000 -1.941949 0.437529 2.935815 3.606092 -1.537836 -0.543142 -0.247014 2.221250 -0.844584 -7.761144 -8.624191 8.522366 9.660062 3.776928 -0.794202 -7.499018 14.742913 -6.174790 -25.044110 -12.840528 13.415705 165.606936 -62.566551 -173.264172 22.124756 -23.989769 -56.250628 7.462779 -12.996886 -9.232956 26.934449 8.225131 2.440320 -174.959163 58.943941 179.584093 -8.426936 21.597254 -32.305751 
-1.206297 0.923997 0.981411 82.295194 -0.238418 86.997906 -9.091173 -8.852305 1.009668 1.301721 -9.815770 8.611875 9.713173 19.446847 -18.587690 0.000000 -0.000000 0.000000 -3.876864 1.069767 -17.269527 -2.769622 -3.863803 29.550155 1.110278 -13.375656 -15.120573 0.000000 -0.000000 0.000000 -1.841930 0.173333 3.953654 3.937405 -1.410344 -1.055556 -0.258453 2.288242 -0.839904 -7.060903 -7.771179 7.588077 8.955834 2.978435 -0.227420 -9.322635 16.216059 -6.243296 -33.564702 -15.021008 12.530667 153.397006 -59.861543 -160.295900 21.347692 -23.631585 -57.888543 10.977019 -14.280189 -10.006742 35.880476 10.818841 1.857626 -165.778308 58.115155 -168.832581 -7.846116 21.542922 -32.781247 
-1.204843 0.923278 0.980194 82.557844 -0.130193 86.217477 -9.024067 -9.552691 0.785528 0.667364 -8.148902 10.983538 10.153300 18.249236 -19.855762 0.000000 -0.000000 0.000000 -4.155804 1.915076 -18.623897 -3.633379 -5.877281 33.747258 0.658425 -12.545758 -16.475484 0.000000 -0.000000 0.000000 -1.895286 -0.363568 5.386249 4.479332 -1.147891 -1.662655 -0.092179 2.124211 -0.777765 -5.525479 -5.805395 5.519982 6.720073 1.808080 1.142274 -10.950095 18.900172 -8.149756 -48.627265 -17.940881 13.904810 141.728231 -53.743374 -144.011061 22.422656 -22.050011 -60.076865 15.433530 -16.160517 -11.204488 48.538949 14.774386 3.745630 -154.942065 55.362714 -152.902922 -8.294724 20.013495 -33.035778 
-1.202809 0.923448 0.977893 82.992389 -0.102252 85.536944 -9.036484 -10.121318 0.472980 0.405003 -6.230489 13.413236 10.509812 16.640131 -21.533717 0.000000 -0.000000 0.000000 -4.673100 2.334444 -19.742983 -4.280944 -7.572203 36.715016 0.220206 -10.913961 -18.266348 0.000000 -0.000000 0.000000 -1.541659 -0.588186 6.721155 4.738429 -0.793125 -1.733520 -0.173924 1.564722 -1.761721 -4.290763 -4.258765 3.870526 4.645530 0.812454 3.618005 -14.135775 19.776962 -10.108277 -59.775326 -19.728433 16.306777 135.984617 -45.411645 -134.092820 22.885839 -22.029995 -60.545885 20.199018 -15.400199 -11.749648 56.487340 16.323759 7.015803 -147.949533 51.051433 -141.913769 -9.335680 20.125087 -32.563985 
-1.200348 0.924479 0.974289 83.118279 0.376302 85.106229 -8.244081 -9.560909 -0.538809 -0.414858 -5.744765 16.599158 10.352840 15.675984 -23.851726 0.000000 -0.000000 0.000000 -4.411842 2.625123 -20.903510 -4.570538 -8.027371 38.013273 -0.133330 -10.242268 -19.452272 0.000000 -0.000000 0.000000 -0.445632 -0.925475 7.977622 4.516206 -0.488903 -1.950504 -0.034073 0.871492 -2.808186 -3.157364 -3.097596 2.143778 2.853596 0.614084 5.686704 -16.487668 17.255556 -10.417368 -63.984505 -17.921955 15.382696 135.900595 -38.392179 -128.840335 23.446318 -22.876568 -57.109613 21.440586 -12.111861 -9.727413 58.805560 16.649087 7.691882 -146.966614 49.101347 -139.654519 -10.638206 20.077742 -32.415648 
-1.197417 0.926418 0.970212 83.079880 0.516817 84.710156 -7.778566 -9.567475 -1.565011 -1.624386 -5.056846 19.677990 10.288649 15.616482 -25.567788 0.000000 -0.000000 0.000000 -4.671573 2.756473 -21.831478 -4.195166 -7.609480 37.786256 -0.609311 -9.897353 -20.032914 0.000000 -0.000000 0.000000 0.566759 -1.172904 8.671668 4.006247 -0.556623 -1.937757 -0.256805 0.823712 -3.180517 -2.380108 -2.659341 1.229244 1.849618 0.945602 6.572843 -16.883475 16.559510 -10.517433 -63.019959 -16.732876 14.852666 136.538331 -37.543289 -127.196921 21.814633 -24.440412 -53.177484 19.651870 -10.899182 -8.604791 57.957185 17.239867 8.970091 -147.337562 51.564582 -139.625341 -8.828786 21.597687 -33.221562 
-1.193670 0.927704 0.964950 82.464403 0.542742 84.325097 -7.574256 -9.417267 -2.570684 -2.698189 -4.434738 22.922070 10.453706 16.534350 -27.272704 0.000000 -0.000000 0.000000 -4.865190 3.252686 -23.057107 -3.721886 -5.959457 35.990246 -0.281142 -9.825883 -20.365423 0.000000 -0.000000 0.000000 1.049458 -1.160314 9.573079 3.554110 -0.212257 -2.550904 -0.640097 1.662452 -2.608531 -2.128062 -3.533215 0.218126 2.387717 1.050379 5.883787 -14.915061 17.585600 -10.887344 -55.683524 -15.409939 15.567767 140.015466 -44.154864 -132.355394 21.962622 -24.686799 -50.680839 17.096101 -11.049644 -8.523640 49.119291 17.191861 8.757364 -153.816650 55.877330 -146.410954 -7.581266 21.927931 -27.963988 
-1.190561 0.928857 0.959539 82.328194 0.722521 84.441818 -7.262405 -9.306507 -4.009004 -3.754320 -4.708590 25.753405 10.298989 17.924185 -28.469950 0.000000 -0.000000 0.000000 -4.930866 3.172949 -24.166152 -3.019743 -3.994466 33.323254 -0.279123 -10.149332 -19.741227 0.000000 -0.000000 0.000000 1.593126 -0.921410 9.268480 3.182264 -0.233738 -2.393765 -0.622990 2.168260 -2.044496 -3.138619 -4.133239 0.174781 3.077673 1.265134 4.468075 -13.072062 16.395898 -11.067743 -43.744978 -13.281136 14.319011 147.313850 -51.458090 -139.533917 22.071135 -26.201650 -43.877213 13.001488 -9.561069 -8.421632 37.727938 15.144980 7.130532 -165.132728 58.554949 -160.038437 -8.602858 23.158156 -24.693100 
-1.187044 0.929556 0.954526 81.915091 1.025749 84.822863 -6.848742 -9.278789 -5.680131 -4.858714 -5.369548 28.600661 9.375198 19.775360 -29.722323 0.000000 -0.000000 0.000000 -4.503104 3.498042 -25.263241 -2.565316 -0.933600 29.885117 0.312152 -10.963713 -19.359782 0.000000 -0.000000 0.000000 1.893770 -0.571088 8.224493 2.953027 -0.521235 -1.230990 -0.299454 2.801125 -2.494712 -5.139575 -4.863970 1.939372 4.717779 1.877458 2.732812 -12.485528 13.160926 -10.805029 -26.378202 -10.569090 12.575485 162.140953 -56.224692 -155.688481 22.615973 -29.584560 -35.318872 9.552367 -6.070719 -8.581626 22.482094 11.295943 6.032897 -179.375046 57.794288 -178.117627 -10.123730 26.025208 -22.815529 
-1.183354 0.930948 0.950100 81.211986 1.283513 85.041130 -6.618283 -8.463771 -6.856740 -5.488497 -6.091762 31.275071 8.582233 21.225765 -31.647978 0.000000 -0.000000 0.000000 -4.113464 3.948791 -26.034168 -2.297642 2.485176 26.482056 1.094680 -11.199529 -18.758749 0.000000 -0.000000 0.000000 2.262949 -0.361459 7.365287 2.645625 -0.410514 -0.284480 0.015985 3.011521 -2.828636 -6.441660 -4.728832 3.508298 5.631554 2.795446 1.493251 -10.132640 9.407118 -9.901317 -12.210211 -7.385658 12.647409 178.446190 -56.121121 -172.516039 20.360334 -33.314424 -28.132616 4.746165 -2.186576 -6.910781 9.434476 8.359325 5.863724 168.088561 54.703644 165.585708 -9.744155 27.743017 -23.785328 
-1.178809 0.931099 0.947531 80.699302 1.334798 84.885709 -6.686485 -8.158469 -7.056023 -5.824233 -6.386614 33.185871 8.202808 22.408142 -33.071704 0.000000 -0.000000 0.000000 -4.058605 4.124294 -26.078155 -1.895800 5.526514 23.145729 1.966434 -11.203227 -18.109074 0.000000 -0.000000 0.000000 2.570886 0.131232 7.037369 2.453154 -0.289326 0.232577 -0.023869 3.016964 -3.111826 -7.006309 -4.530831 4.943883 6.095233 3.369908 0.931867 -5.862342 7.106422 -9.258392 -4.478900 -6.898869 14.261188 -168.032162 -54.795608 171.907068 21.673449 -34.864282 -30.342082 -0.823289 -0.340194 -5.927146 1.920497 7.114352 6.468481 158.346601 51.211957 153.763575 -11.809651 28.378107 -26.875746 
